<svg width="221" height="267" fill="none" xmlns="http://www.w3.org/2000/svg"><g filter="url(#a)"><rect x="25" y="17" width="81" height="111" rx="4" fill="#fff"/></g><mask id="b" style="mask-type:alpha" maskUnits="userSpaceOnUse" x="25" y="17" width="81" height="111"><rect x="25" y="17" width="81" height="111" rx="4" fill="#fff"/></mask><g mask="url(#b)"><path fill-rule="evenodd" clip-rule="evenodd" d="M11.7 103.5 45.4 92l20.1-29.4 20.4 6.5 27.2-42v86.4l-101.4-.3v-9.8Z" fill="url(#c)"/><path d="M113.5 26v87.6h-.7V28.5L86 69.5l-20.5-6.4-20 29.3-33.8 11.4-.2-.7 33.6-11.3 20.2-29.5 20.4 6.4L113.5 26Z" fill="#5175FF"/><path opacity=".2" fill="#5175FF" d="M65.5 17h.4v89.8h-.4zM45.3 17h.4v89.8h-.4zM86.1 17h.4v89.8h-.4z"/><circle cx="65.5" cy="62.6" fill="#5175FF" r="2.2"/><path fill-rule="evenodd" clip-rule="evenodd" d="M72 62.6c0-3.5-3-6.4-6.5-6.4a6.5 6.5 0 0 0-6.5 6.4c0 3.6 3 6.5 6.5 6.5 3.6 0 6.5-3 6.5-6.5Zm-12.6 0c0-3.4 2.7-6 6.1-6 3.4 0 6.1 2.6 6.1 6s-2.7 6.1-6.1 6.1a6.1 6.1 0 0 1-6.1-6Z" fill="#5175FF"/><circle cx="45.3" cy="92.1" fill="#5175FF" r="2.2"/><circle cx="86.1" cy="69.1" fill="#5175FF" r="2.2"/><circle cx="106" cy="38.6" fill="#5175FF" r="2.2"/><circle cx="25" cy="98.9" fill="#5175FF" r="2.2"/><path opacity=".5" fill-rule="evenodd" clip-rule="evenodd" d="m63.3 122-.9.2v-.5c.4 0 .6-.1.6-.5v-2.6h.5v2.6c0 .4 0 .6-.2.8Zm1.7-.5h-.8a.5.5 0 0 1-.2-.5l.1-.3.3-.3h.8c0-.2-.2-.4-.5-.4l-.4.2-.2-.4a2 2 0 0 1 .8-.2h.4l.4.4v1.5h-.4v-.2l-.3.2Zm-.2-.4h-.2v-.4h.3a1 1 0 0 1 .3 0l-.1.3h-.3Zm2-.5v1h-.6v-2h.5v.2l.3-.2h.4c.2 0 .4 0 .5.2.2.1.2.3.2.6v1.1h-.5v-1c0-.3-.2-.5-.4-.5-.1 0-.2 0-.3.2l-.1.4ZM42.7 121.5c.6 0 1 0 1.3-.3.3-.3.5-.7.5-1.1 0-.5-.2-.8-.5-1a2 2 0 0 0-1.3-.5h-.9v3h1Zm0-.5h-.3v-1.8h.3c.4 0 .7 0 .9.2.2.2.3.4.3.7 0 .3-.1.5-.3.7l-.9.2Zm3.5.5h-1a1 1 0 0 1-.5-1 1 1 0 0 1 .5-.8l.5-.1h.6a1 1 0 0 1 .5 1v.1h-1.6l.2.3.4.1a.8.8 0 0 0 .5-.2l.4.4-.5.2Zm0-1h-1c0-.2.1-.3.2-.3l.3-.2c.1 0 .2 0 .3.2l.2.2Zm2.3 1h-1a1 1 0 0 1-.5-.9 1 1 0 0 1 .5-.9l.6-.1h.4l.3.3-.4.3-.3-.2-.4.2-.1.4.1.3.4.2c.1 0 .2 0 .3-.2l.4.4-.3.2ZM22 119.6v2h-.5v-3h.6l1.5 2v-2h.5v3h-.6l-1.4-2Zm4 1.8a1 1 0 0 1-.4.2 1 1 0 0 1-.6-.2 1 1 0 0 1-.5-.8c0-.2 0-.4.2-.5 0-.2.2-.3.3-.4l.6-.1.5.1a1 1 0 0 1 .5.9 1 1 0 0 1-.5.8Zm-.4-.3c-.2 0-.3 0-.4-.2l-.1-.3.1-.4.4-.2.3.2.1.4v.3l-.4.2Zm2.6-1.5h.6l-.8 2h-.5l-.8-2h.6l.3 1 .1.2v.2a5.2 5.2 0 0 1 .2-.5l.3-.9ZM83 121.5v-1.2h1.2v-.5h-1.1v-.6h1.2v-.6h-1.8v3h.6Zm2.7 0h.4l.5-.2-.4-.4-.2.1-.3.1-.4-.1-.2-.3h1.5v-.6a1 1 0 0 0-.4-.4 1 1 0 0 0-.6-.1 1 1 0 0 0-.5.1 1 1 0 0 0-.5.9 1 1 0 0 0 .5.8l.6.2Zm-.6-1h1c0-.2-.1-.3-.2-.3l-.3-.2c-.1 0-.2 0-.3.2l-.2.2Zm3 1a1 1 0 0 0 1-.4v-1a1 1 0 0 0-.8-.5 1 1 0 0 0-.7.2v-1.2H87v3h.5v-.3l.3.2h.4Zm-.4-.6.4.2c.1 0 .2 0 .3-.2l.2-.3c0-.2 0-.3-.2-.4l-.3-.2-.4.2-.1.4.1.3ZM103.1 120.8v.7h-.6v-2.9h.8l.7 1.4a11.7 11.7 0 0 1 .1.5 6.5 6.5 0 0 1 .2-.5l.6-1.4h.8v3h-.6a57.7 57.7 0 0 1-.2-1.6l-.5 1h-.6l-.5-1a25 25 0 0 1-.2-.6 27 27 0 0 1 0 1.4Zm4 .7h-.8a.5.5 0 0 1-.2-.5c0-.1 0-.2.2-.3l.3-.3h.8c0-.2-.2-.4-.5-.4l-.5.2-.2-.4a2 2 0 0 1 .8-.2h.5l.3.4.1.4v1.1h-.4v-.2l-.3.2Zm-.1-.4h-.2l-.1-.2v-.2h.4a1 1 0 0 1 .3 0l-.1.3h-.3Zm2-.4v.8h-.6v-1.9h.5v.3c.2-.2.3-.3.6-.3h.3l-.1.5h-.2l-.4.1-.1.5Z" fill="#747B95"/><path opacity=".3" fill="#747B95" d="M25 113.3h81v.4H25z"/><path opacity=".3" fill="#747B95" d="M65.5 110.4h.4v2.9h-.4zM45.3 110.4h.4v2.9h-.4zM85.8 110.4h.4v2.9h-.4z"/></g><g filter="url(#d)"><rect x="25" y="139" width="81" height="53" rx="4" fill="#333950"/></g><mask id="e" style="mask-type:alpha" maskUnits="userSpaceOnUse" x="25" y="139" width="81" height="53"><rect x="25" y="139" width="81" height="53" rx="4" fill="#fff"/></mask><g mask="url(#e)"><path fill-rule="evenodd" clip-rule="evenodd" d="M54.2 172.6v.9h-6v-.9l2.2-.3 5.8-18.4H59l6.2 18.5 2 .2v.9h-8.8v-.9l2.3-.3-1.6-5h-6l-1.4 5 2.5.3Zm-.8-6.2h5.4l-2.8-9-2.6 9Zm26.5 7.5c1.6 0 2.6-.6 3.3-2l-.5-.4c-.4.8-.7 1-1.1 1-.5 0-.8-.3-.8-1.3v-7c0-3.8-1.5-5.4-5.2-5.4-4 0-6.3 1.5-6.5 4 .2.9.8 1.3 1.8 1.3s1.8-.7 2-2.5l.1-1.8 1.1-.1c2 0 2.6.8 2.6 3.5v1.6l-2.5.7c-4.2 1.2-5.6 2.5-5.6 4.9 0 2.2 1.6 3.5 3.8 3.5 2 0 3-.8 4.4-2.2.4 1.4 1.4 2.2 3 2.2Zm-7.4-4c0 1.5.7 2.3 2 2.3.6 0 1.2-.4 2.2-1.2v-5.5l-1.4.5c-1.8.7-2.8 2-2.8 3.9Z" fill="#FEFEFE"/><path d="M47.8 175.3v1.5h34.4v-1.5H47.8Z" fill="#FEFEFE"/><path d="M.8 164.8v1.4h34.4v-1.4H.8ZM94.8 164.8v1.4h34.4v-1.4H94.8Z" fill="#FEFEFE" opacity=".1"/></g><g filter="url(#f)"><rect x="115" width="81" height="175" rx="4" fill="#5175FF"/></g><path opacity=".1" fill="#fff" d="M115 65.9h81v.4h-81z"/><path opacity=".1" d="M175.3 33a19.8 19.8 0 1 1-39.6 0 19.8 19.8 0 0 1 39.6 0Z" stroke="#fff" stroke-linejoin="round"/><path d="m147.3 51.3 1.2-3a17.3 17.3 0 1 0-10.3-15.8H135a20.5 20.5 0 1 1 12.3 18.8Z" fill="#5CFCD3"/><path fill-rule="evenodd" clip-rule="evenodd" d="M147.1 37.1c.6 0 1.1 0 1.6-.3.4-.2.8-.5 1-.9.3-.3.4-.8.4-1.3a2.3 2.3 0 0 0-1.5-2.2l1-.7.2-1.2a2 2 0 0 0-1.3-2l-1.4-.2c-.5 0-1 0-1.4.3-.4.2-.7.4-1 .8a2 2 0 0 0-.3 1.1c0 .5.1.8.3 1.2.2.3.5.5 1 .7-.5.2-.9.5-1.2.9-.2.4-.4.8-.4 1.3s.2 1 .4 1.3l1 1 1.6.2Zm0-5.4a1 1 0 0 1-.8-.3 1 1 0 0 1-.2-.7c0-.3 0-.6.3-.8.1-.2.4-.2.7-.2.3 0 .6 0 .8.2.2.2.3.5.3.8 0 .3-.1.5-.3.7a1 1 0 0 1-.8.3Zm-1 3.6c.3.2.6.3 1 .3s.8-.1 1-.3c.3-.2.4-.5.4-.9a1 1 0 0 0-.4-.9c-.2-.2-.6-.3-1-.3s-.7.1-1 .3c-.2.3-.3.6-.3 1 0 .3.1.6.3.8Zm8 1.7 2.8-7.3v-1.2h-5.5V30h3.5l-2.7 7h1.8Zm7.2-4.7-1 .2c-.5 0-1-.1-1.3-.4-.3-.2-.5-.4-.6-.8-.2-.3-.2-.6-.2-.9 0-.3 0-.6.2-.9.1-.3.3-.6.6-.8.4-.2.8-.3 1.3-.3.4 0 .7 0 1 .2a1.9 1.9 0 0 1 1 1.1l.2.7-.1.7a2 2 0 0 1-1 1.2ZM161 37l5.4-8.5H165l-5.4 8.5h1.5Zm-1.2-6c.1.2.3.3.5.3s.4-.1.5-.3c.2-.1.2-.3.2-.6 0-.2 0-.4-.2-.6a.6.6 0 0 0-.5-.2c-.2 0-.4 0-.5.2a1 1 0 0 0-.2.6c0 .3 0 .5.2.6Zm5.8 6c.5 0 1 0 1.3-.3l.7-.8.2-1c0-.1 0-.4-.2-.6a1.9 1.9 0 0 0-1-1.2l-1-.1-1 .1a1.8 1.8 0 0 0-1 1.2l-.2.7.3.9c0 .3.3.6.6.8.3.2.8.3 1.3.3Zm-.5-1.4.5.2c.2 0 .4 0 .5-.2l.2-.6c0-.2 0-.4-.2-.6a.6.6 0 0 0-.5-.3c-.2 0-.4.1-.5.3a1 1 0 0 0-.2.6c0 .2 0 .4.2.6Z" fill="#5CFCD3"/><path fill-rule="evenodd" clip-rule="evenodd" d="M148.4 85.3c-.7.8-1.5 1.5-2.5 2l-1.3-1.4 1.8-1.3c.5-.5 1-1 1.3-1.6a3.5 3.5 0 0 1-1 .1 4 4 0 0 1-1.8-.4 3.3 3.3 0 0 1-1.8-3 3.4 3.4 0 0 1 1.9-3.1c.5-.3 1.2-.5 2-.5a4 4 0 0 1 2 .5c.5.3 1 .8 1.2 1.4.3.6.5 1.3.5 2 0 1-.2 1.9-.6 2.8-.4.9-1 1.7-1.7 2.5Zm-2.6-4.3c.2.3.6.4 1 .4.5 0 1-.1 1.2-.4.3-.4.5-.8.5-1.3s-.2-.9-.5-1.2c-.3-.3-.6-.5-1.1-.5-.5 0-.8.2-1.1.5-.3.3-.5.8-.5 1.3 0 .4.2.8.5 1.2Zm10 6.2c.8 0 1.5-.2 2-.4.6-.3 1-.6 1.3-1.1.3-.5.5-1 .5-1.6a2.9 2.9 0 0 0-1.9-2.8c.5-.2.9-.6 1.1-1 .3-.4.4-.9.4-1.4 0-.5-.1-1-.4-1.5-.3-.4-.7-.7-1.2-1-.5-.2-1-.3-1.7-.3s-1.3.1-1.8.4c-.5.2-1 .5-1.2 1-.3.4-.5.9-.5 1.4 0 .6.2 1 .5 1.4.2.4.6.8 1 1a2.9 2.9 0 0 0-1.9 2.8 2.9 2.9 0 0 0 1.9 2.7c.5.2 1.2.4 2 .4Zm-1-7.2c.3.3.7.4 1 .4.4 0 .8-.1 1-.4.3-.2.4-.5.4-.9s-.1-.7-.4-1c-.2-.2-.6-.3-1-.3-.3 0-.7.1-1 .4-.2.2-.3.5-.3.9s.1.7.4 1Zm1 5.3c-.5 0-.9-.2-1.2-.5-.3-.2-.4-.6-.4-1 0-.5.1-.8.4-1.1.3-.3.7-.4 1.3-.4.5 0 .9.1 1.2.4.3.3.4.6.4 1 0 .5-.1.9-.4 1.1-.3.3-.7.5-1.2.5Zm7.5 0V87h-2V76.3h2v6.5l.4-.7.6-.6 1.3-1.6h2.3l-2.7 3.2 3.2 3.9h-2.5l-2-2.4-.6.7Z" fill="#fff"/><rect x="126.6" y="102.2" width="5.1" height="5.1" rx="2.5" fill="#fff"/><rect x="137.1" y="102.2" width="47.4" height="5.1" rx="2.5" fill="#7DA7FF"/><rect x="126.6" y="114.5" width="5.1" height="5.1" rx="2.5" fill="#fff"/><rect x="137.1" y="114.5" width="30" height="5.1" rx="2.5" fill="#7DA7FF"/><rect x="126.6" y="126.8" width="5.1" height="5.1" rx="2.5" fill="#fff"/><rect x="137.1" y="126.8" width="47.4" height="5.1" rx="2.5" fill="#7DA7FF"/><rect x="126.6" y="139.1" width="5.1" height="5.1" rx="2.5" fill="#fff"/><rect x="137.1" y="139.1" width="28.6" height="5.1" rx="2.5" fill="#7DA7FF"/><rect x="126.6" y="151.4" width="5.1" height="5.1" rx="2.5" fill="#fff"/><rect x="137.1" y="151.4" width="47.4" height="5.1" rx="2.5" fill="#7DA7FF"/><defs><filter id="a" x="0" y="17" width="131" height="186" filterUnits="userSpaceOnUse" color-interpolation-filters="sRGB"><feFlood flood-opacity="0" result="BackgroundImageFix"/><feColorMatrix in="SourceAlpha" values="0 0 0 0 0 0 0 0 0 0 0 0 0 0 0 0 0 0 127 0" result="hardAlpha"/><feMorphology radius="25" in="SourceAlpha" result="effect1_dropShadow_0_136"/><feOffset dy="50"/><feGaussianBlur stdDeviation="25"/><feColorMatrix values="0 0 0 0 0.293478 0 0 0 0 0.35972 0 0 0 0 0.604535 0 0 0 0.247159 0"/><feBlend in2="BackgroundImageFix" result="effect1_dropShadow_0_136"/><feBlend in="SourceGraphic" in2="effect1_dropShadow_0_136" result="shape"/></filter><filter id="d" x="0" y="139" width="131" height="128" filterUnits="userSpaceOnUse" color-interpolation-filters="sRGB"><feFlood flood-opacity="0" result="BackgroundImageFix"/><feColorMatrix in="SourceAlpha" values="0 0 0 0 0 0 0 0 0 0 0 0 0 0 0 0 0 0 127 0" result="hardAlpha"/><feMorphology radius="25" in="SourceAlpha" result="effect1_dropShadow_0_136"/><feOffset dy="50"/><feGaussianBlur stdDeviation="25"/><feColorMatrix values="0 0 0 0 0.293478 0 0 0 0 0.35972 0 0 0 0 0.604535 0 0 0 0.247159 0"/><feBlend in2="BackgroundImageFix" result="effect1_dropShadow_0_136"/><feBlend in="SourceGraphic" in2="effect1_dropShadow_0_136" result="shape"/></filter><filter id="f" x="90" y="0" width="131" height="250" filterUnits="userSpaceOnUse" color-interpolation-filters="sRGB"><feFlood flood-opacity="0" result="BackgroundImageFix"/><feColorMatrix in="SourceAlpha" values="0 0 0 0 0 0 0 0 0 0 0 0 0 0 0 0 0 0 127 0" result="hardAlpha"/><feMorphology radius="25" in="SourceAlpha" result="effect1_dropShadow_0_136"/><feOffset dy="50"/><feGaussianBlur stdDeviation="25"/><feColorMatrix values="0 0 0 0 0.293478 0 0 0 0 0.35972 0 0 0 0 0.604535 0 0 0 0.247159 0"/><feBlend in2="BackgroundImageFix" result="effect1_dropShadow_0_136"/><feBlend in="SourceGraphic" in2="effect1_dropShadow_0_136" result="shape"/></filter><linearGradient id="c" x1="11.7" y1="27.2" x2="11.7" y2="113.6" gradientUnits="userSpaceOnUse"><stop stop-color="#024AFF" stop-opacity=".1"/><stop offset="1" stop-color="#3B77CF" stop-opacity="0"/></linearGradient></defs></svg>